<?xml version="1.0" encoding="UTF-8" standalone="no"?><!-- Generator: Gravit.io --><svg xmlns="http://www.w3.org/2000/svg" xmlns:xlink="http://www.w3.org/1999/xlink" style="isolation:isolate" viewBox="0 0 500 500" width="500pt" height="500pt"><defs><clipPath id="_clipPath_p6QZFvSeA1b7aBdnw7mcPxU8W6MEewD6"><rect width="500" height="500"/></clipPath></defs><g clip-path="url(#_clipPath_p6QZFvSeA1b7aBdnw7mcPxU8W6MEewD6)"><g opacity="0.69"><mask id="_mask_3cCOvtZ1YdA0UVIrWUBc4fvgWUPVnaBn"><ellipse vector-effect="non-scaling-stroke" cx="300.81955887848983" cy="337.95259763645475" rx="56.5" ry="54" fill="white" stroke="none"/></mask><ellipse vector-effect="non-scaling-stroke" cx="300.81955887848983" cy="337.95259763645475" rx="56.5" ry="54" fill="rgb(251,254,255)"/><ellipse vector-effect="non-scaling-stroke" cx="300.81955887848983" cy="337.95259763645475" rx="56.5" ry="54" fill="rgb(251,254,255)" mask="url(#_mask_3cCOvtZ1YdA0UVIrWUBc4fvgWUPVnaBn)" stroke-width="2" stroke="rgb(239,251,255)" stroke-linejoin="miter" stroke-linecap="square" stroke-miterlimit="3"/></g><g opacity="0.69"><mask id="_mask_8ABSDPs6DkNP914cGrPh3ddtZO8pNRbV"><ellipse vector-effect="non-scaling-stroke" cx="387.31955887848983" cy="169.04740236354536" rx="56.5" ry="54" fill="white" stroke="none"/></mask><ellipse vector-effect="non-scaling-stroke" cx="387.31955887848983" cy="169.04740236354536" rx="56.5" ry="54" fill="rgb(251,254,255)"/><ellipse vector-effect="non-scaling-stroke" cx="387.31955887848983" cy="169.04740236354536" rx="56.5" ry="54" fill="rgb(251,254,255)" mask="url(#_mask_8ABSDPs6DkNP914cGrPh3ddtZO8pNRbV)" stroke-width="2" stroke="rgb(239,251,255)" stroke-linejoin="miter" stroke-linecap="square" stroke-miterlimit="3"/></g><g opacity="0.69"><mask id="_mask_1Sgy73kcmcHDGEVL6EcpKV0X5KaWGT2U"><ellipse vector-effect="non-scaling-stroke" cx="189.31955887848983" cy="131.10325885551492" rx="56.5" ry="54" fill="white" stroke="none"/></mask><ellipse vector-effect="non-scaling-stroke" cx="189.31955887848983" cy="131.10325885551492" rx="56.5" ry="54" fill="rgb(251,254,255)"/><ellipse vector-effect="non-scaling-stroke" cx="189.31955887848983" cy="131.10325885551492" rx="56.5" ry="54" fill="rgb(251,254,255)" mask="url(#_mask_1Sgy73kcmcHDGEVL6EcpKV0X5KaWGT2U)" stroke-width="2" stroke="rgb(239,251,255)" stroke-linejoin="miter" stroke-linecap="square" stroke-miterlimit="3"/></g><path d=" M 32.82 219.103 Q 52.545 254.944 77.82 260.103 C 103.094 265.263 159.842 266.009 188.82 254.103 C 217.797 242.197 251.296 215.308 273.82 214.103 C 296.343 212.898 388.308 187.594 392.82 183.103 C 397.332 178.612 402.827 156.711 403.82 166.103 C 404.812 175.495 402.022 269.541 392.82 286.103 C 383.617 302.666 379.529 304.216 358.82 313.103 C 338.11 321.991 278.751 330.553 254.82 343.103 C 230.888 355.653 205.583 378.89 185.82 384.103 C 166.056 389.316 115.195 398.215 89.82 384.103 C 64.444 369.991 77.299 379.072 66.82 371.103 Q 56.34 363.134 41.82 343.103 L 32.82 233.103 L 32.82 219.103 Z " fill="rgb(219,167,35)"/><g opacity="0.69"><mask id="_mask_7j4hBx4TMPewjFOAVoUonUp95nDAfLw5"><ellipse vector-effect="non-scaling-stroke" cx="254.31955887848983" cy="118.89674114448508" rx="56.5" ry="54" fill="white" stroke="none"/></mask><ellipse vector-effect="non-scaling-stroke" cx="254.31955887848983" cy="118.89674114448508" rx="56.5" ry="54" fill="rgb(251,254,255)"/><ellipse vector-effect="non-scaling-stroke" cx="254.31955887848983" cy="118.89674114448508" rx="56.5" ry="54" fill="rgb(251,254,255)" mask="url(#_mask_7j4hBx4TMPewjFOAVoUonUp95nDAfLw5)" stroke-width="2" stroke="rgb(239,251,255)" stroke-linejoin="miter" stroke-linecap="square" stroke-miterlimit="3"/></g><g><ellipse vector-effect="non-scaling-stroke" cx="167.74346950510767" cy="325.70651771102973" rx="1.923910626617868" ry="1.6032588555148664" fill="rgb(206,156,31)"/><ellipse vector-effect="non-scaling-stroke" cx="65.7434695051077" cy="363.70651771102973" rx="1.9239106266178645" ry="1.6032588555148664" fill="rgb(206,156,31)"/><ellipse vector-effect="non-scaling-stroke" cx="54.7434695051077" cy="324.1032588555149" rx="1.923910626617861" ry="1.6032588555148664" fill="rgb(206,156,31)"/><ellipse vector-effect="non-scaling-stroke" cx="153.7434695051077" cy="300.5" rx="1.923910626617868" ry="1.6032588555148664" fill="rgb(206,156,31)"/></g><path d=" M 183.82 154.103 C 167.926 156.17 75.663 173.75 63.82 182.103 C 51.976 190.456 22.884 215.152 31.82 232.103 C 40.756 249.055 77.557 275.1 116.82 276.103 C 156.082 277.107 189.452 268.477 224.82 249.103 C 260.187 229.73 265.737 222.061 293.82 218.103 C 321.902 214.145 408.074 201.906 405.82 178.103 C 403.565 154.3 398.152 140.063 367.82 129.103 C 337.487 118.144 298.102 108.972 259.82 120.103 C 221.537 131.235 199.713 152.036 183.82 154.103 Z " fill="rgb(255,227,87)"/><g><ellipse vector-effect="non-scaling-stroke" cx="75.81955887848983" cy="190.60325885551487" rx="3" ry="2.5" fill="rgb(242,216,82)"/><ellipse vector-effect="non-scaling-stroke" cx="133.81955887848983" cy="230.60325885551484" rx="3" ry="2.5" fill="rgb(242,216,82)"/><ellipse vector-effect="non-scaling-stroke" cx="209.8195588784899" cy="195.61446599269678" rx="3" ry="2.5" fill="rgb(242,216,82)"/><ellipse vector-effect="non-scaling-stroke" cx="285.81955887848983" cy="138.6032588555149" rx="3" ry="2.5" fill="rgb(242,216,82)"/><ellipse vector-effect="non-scaling-stroke" cx="331.81955887848994" cy="168.6032588555149" rx="3" ry="2.5" fill="rgb(242,216,82)"/><ellipse vector-effect="non-scaling-stroke" cx="374.8195588784899" cy="168.60325885551484" rx="3" ry="2.5" fill="rgb(242,216,82)"/><ellipse vector-effect="non-scaling-stroke" cx="322.7434695051077" cy="144.49999999999997" rx="1.9239106266178396" ry="1.6032588555148948" fill="rgb(242,216,82)"/><ellipse vector-effect="non-scaling-stroke" cx="185.74346950510764" cy="174.5" rx="1.923910626617868" ry="1.6032588555148948" fill="rgb(242,216,82)"/><ellipse vector-effect="non-scaling-stroke" cx="181.8956482518719" cy="234.7065177110298" rx="1.923910626617868" ry="1.6032588555148948" fill="rgb(242,216,82)"/><ellipse vector-effect="non-scaling-stroke" cx="115.89564825187193" cy="260.70651771102985" rx="1.923910626617868" ry="1.6032588555148664" fill="rgb(242,216,82)"/><ellipse vector-effect="non-scaling-stroke" cx="75.8195588784898" cy="236.30977656654468" rx="1.923910626617868" ry="1.6032588555148948" fill="rgb(242,216,82)"/><ellipse vector-effect="non-scaling-stroke" cx="284.74346950510767" cy="172.7065177110298" rx="1.9239106266178396" ry="1.6032588555148948" fill="rgb(242,216,82)"/><ellipse vector-effect="non-scaling-stroke" cx="312.74346950510767" cy="247.70651771102982" rx="1.9239106266178396" ry="1.6032588555148948" fill="rgb(206,156,31)"/><ellipse vector-effect="non-scaling-stroke" cx="257.895648251872" cy="286.5" rx="1.9239106266178538" ry="1.6032588555148664" fill="rgb(206,156,31)"/><g opacity="0.69"><mask id="_mask_GZ3wkAC4bqRnlQU9ZsacGlCvIGuYTwiT"><ellipse vector-effect="non-scaling-stroke" cx="70.717707026638" cy="201.1032588555149" rx="42.89814814814815" ry="41" fill="white" stroke="none"/></mask><ellipse vector-effect="non-scaling-stroke" cx="70.717707026638" cy="201.1032588555149" rx="42.89814814814815" ry="41" fill="rgb(251,254,255)"/><ellipse vector-effect="non-scaling-stroke" cx="70.717707026638" cy="201.1032588555149" rx="42.89814814814815" ry="41" fill="rgb(251,254,255)" mask="url(#_mask_GZ3wkAC4bqRnlQU9ZsacGlCvIGuYTwiT)" stroke-width="2" stroke="rgb(239,251,255)" stroke-linejoin="miter" stroke-linecap="square" stroke-miterlimit="3"/></g><g opacity="0.69"><mask id="_mask_WKoJQcJRWVdPYsRftZjrrVEv058ElKbS"><ellipse vector-effect="non-scaling-stroke" cx="109.81955887848983" cy="157.7516341342897" rx="37" ry="35.36283185840708" fill="white" stroke="none"/></mask><ellipse vector-effect="non-scaling-stroke" cx="109.81955887848983" cy="157.7516341342897" rx="37" ry="35.36283185840708" fill="rgb(251,254,255)"/><ellipse vector-effect="non-scaling-stroke" cx="109.81955887848983" cy="157.7516341342897" rx="37" ry="35.36283185840708" fill="rgb(251,254,255)" mask="url(#_mask_WKoJQcJRWVdPYsRftZjrrVEv058ElKbS)" stroke-width="2" stroke="rgb(239,251,255)" stroke-linejoin="miter" stroke-linecap="square" stroke-miterlimit="3"/></g><g opacity="0.69"><mask id="_mask_6qM6knps7cIpRxOpSaGQk6174UfA9XSU"><ellipse vector-effect="non-scaling-stroke" cx="133.81955887848983" cy="211.46609071392194" rx="37" ry="35.36283185840708" fill="white" stroke="none"/></mask><ellipse vector-effect="non-scaling-stroke" cx="133.81955887848983" cy="211.46609071392194" rx="37" ry="35.36283185840708" fill="rgb(251,254,255)"/><ellipse vector-effect="non-scaling-stroke" cx="133.81955887848983" cy="211.46609071392194" rx="37" ry="35.36283185840708" fill="rgb(251,254,255)" mask="url(#_mask_6qM6knps7cIpRxOpSaGQk6174UfA9XSU)" stroke-width="2" stroke="rgb(239,251,255)" stroke-linejoin="miter" stroke-linecap="square" stroke-miterlimit="3"/></g></g><g opacity="0.69"><mask id="_mask_77G45HMHWilTKAJ8Xd4si7JTQ2hddNMB"><ellipse vector-effect="non-scaling-stroke" cx="357.31955887848983" cy="324.1032588555149" rx="56.5" ry="54" fill="white" stroke="none"/></mask><ellipse vector-effect="non-scaling-stroke" cx="357.31955887848983" cy="324.1032588555149" rx="56.5" ry="54" fill="rgb(251,254,255)"/><ellipse vector-effect="non-scaling-stroke" cx="357.31955887848983" cy="324.1032588555149" rx="56.5" ry="54" fill="rgb(251,254,255)" mask="url(#_mask_77G45HMHWilTKAJ8Xd4si7JTQ2hddNMB)" stroke-width="2" stroke="rgb(239,251,255)" stroke-linejoin="miter" stroke-linecap="square" stroke-miterlimit="3"/></g><g opacity="0.69"><mask id="_mask_K9HJWasuLjyvRzVVSTiwRLSrp7heAGkC"><ellipse vector-effect="non-scaling-stroke" cx="86.64113034440464" cy="381.103258855515" rx="56.5" ry="54" fill="white" stroke="none"/></mask><ellipse vector-effect="non-scaling-stroke" cx="86.64113034440464" cy="381.103258855515" rx="56.5" ry="54" fill="rgb(251,254,255)"/><ellipse vector-effect="non-scaling-stroke" cx="86.64113034440464" cy="381.103258855515" rx="56.5" ry="54" fill="rgb(251,254,255)" mask="url(#_mask_K9HJWasuLjyvRzVVSTiwRLSrp7heAGkC)" stroke-width="2" stroke="rgb(239,251,255)" stroke-linejoin="miter" stroke-linecap="square" stroke-miterlimit="3"/></g><g opacity="0.69"><mask id="_mask_QAzpWjVbuc4xWzQcYqRgVYJ0fdczRfRI"><ellipse vector-effect="non-scaling-stroke" cx="266.31955887848983" cy="239.10325885551492" rx="56.5" ry="54.000000000000014" fill="white" stroke="none"/></mask><ellipse vector-effect="non-scaling-stroke" cx="266.31955887848983" cy="239.10325885551492" rx="56.5" ry="54.000000000000014" fill="rgb(251,254,255)"/><ellipse vector-effect="non-scaling-stroke" cx="266.31955887848983" cy="239.10325885551492" rx="56.5" ry="54.000000000000014" fill="rgb(251,254,255)" mask="url(#_mask_QAzpWjVbuc4xWzQcYqRgVYJ0fdczRfRI)" stroke-width="2" stroke="rgb(239,251,255)" stroke-linejoin="miter" stroke-linecap="square" stroke-miterlimit="3"/></g><g opacity="0.69"><mask id="_mask_qtIhAgG4STwqScNGE6BDjsKiQXbcw0gR"><ellipse vector-effect="non-scaling-stroke" cx="357.31955887848983" cy="262.1032588555149" rx="56.5" ry="54" fill="white" stroke="none"/></mask><ellipse vector-effect="non-scaling-stroke" cx="357.31955887848983" cy="262.1032588555149" rx="56.5" ry="54" fill="rgb(251,254,255)"/><ellipse vector-effect="non-scaling-stroke" cx="357.31955887848983" cy="262.1032588555149" rx="56.5" ry="54" fill="rgb(251,254,255)" mask="url(#_mask_qtIhAgG4STwqScNGE6BDjsKiQXbcw0gR)" stroke-width="2" stroke="rgb(239,251,255)" stroke-linejoin="miter" stroke-linecap="square" stroke-miterlimit="3"/></g><g opacity="0.69"><mask id="_mask_vuiE0Il5NNNC6pl8P3bySoRvmCJtUFK6"><ellipse vector-effect="non-scaling-stroke" cx="413.81955887848983" cy="327.103258855515" rx="56.5" ry="54" fill="white" stroke="none"/></mask><ellipse vector-effect="non-scaling-stroke" cx="413.81955887848983" cy="327.103258855515" rx="56.5" ry="54" fill="rgb(251,254,255)"/><ellipse vector-effect="non-scaling-stroke" cx="413.81955887848983" cy="327.103258855515" rx="56.5" ry="54" fill="rgb(251,254,255)" mask="url(#_mask_vuiE0Il5NNNC6pl8P3bySoRvmCJtUFK6)" stroke-width="2" stroke="rgb(239,251,255)" stroke-linejoin="miter" stroke-linecap="square" stroke-miterlimit="3"/></g><g opacity="0.69"><mask id="_mask_zRSTcjnjz5VjCRG6DkQodiI3hDq0mJcc"><ellipse vector-effect="non-scaling-stroke" cx="432.5" cy="246.02792824598478" rx="39.68044112151017" ry="37.924669390469916" fill="white" stroke="none"/></mask><ellipse vector-effect="non-scaling-stroke" cx="432.5" cy="246.02792824598478" rx="39.68044112151017" ry="37.924669390469916" fill="rgb(251,254,255)"/><ellipse vector-effect="non-scaling-stroke" cx="432.5" cy="246.02792824598478" rx="39.68044112151017" ry="37.924669390469916" fill="rgb(251,254,255)" mask="url(#_mask_zRSTcjnjz5VjCRG6DkQodiI3hDq0mJcc)" stroke-width="2" stroke="rgb(239,251,255)" stroke-linejoin="miter" stroke-linecap="square" stroke-miterlimit="3"/></g></g></svg>